{
  "schema_version": "score.v1",
  "metadata": {
    "title": "Idol Death",
    "tempo_bpm": 140,
    "time_signature": "4/4",
    "key": "C",
    "length_bars": 8
  },
  "resolution": {
    "steps_per_beat": 4,
    "beats_per_bar": 4
  },
  "tracks": [
    {
      "id": "pulse1",
      "role": "melody",
      "monophonic": true,
      "program": 80
    },
    {
      "id": "pulse2",
      "role": "harmony",
      "monophonic": true,
      "program": 80
    },
    {
      "id": "triangle",
      "role": "bass",
      "monophonic": true,
      "program": 38
    },
    {
      "id": "noise",
      "role": "drums",
      "monophonic": true,
      "program": 0
    }
  ],
  "events": [
    {
      "type": "note",
      "track": "pulse1",
      "pitch": 72,
      "velocity": 127,
      "start_step": 0,
      "dur_steps": 2
    },
    {
      "type": "note",
      "track": "pulse1",
      "pitch": 72,
      "velocity": 100,
      "start_step": 2,
      "dur_steps": 2
    },
    {
      "type": "note",
      "track": "pulse1",
      "pitch": 67,
      "velocity": 127,
      "start_step": 4,
      "dur_steps": 2
    },
    {
      "type": "note",
      "track": "pulse1",
      "pitch": 67,
      "velocity": 100,
      "start_step": 6,
      "dur_steps": 2
    },
    {
      "type": "note",
      "track": "pulse1",
      "pitch": 65,
      "velocity": 127,
      "start_step": 8,
      "dur_steps": 2
    },
    {
      "type": "note",
      "track": "pulse1",
      "pitch": 65,
      "velocity": 100,
      "start_step": 10,
      "dur_steps": 2
    },
    {
      "type": "note",
      "track": "pulse1",
      "pitch": 60,
      "velocity": 127,
      "start_step": 12,
      "dur_steps": 4
    },
    {
      "type": "note",
      "track": "pulse2",
      "pitch": 60,
      "velocity": 100,
      "start_step": 0,
      "dur_steps": 4
    },
    {
      "type": "note",
      "track": "pulse2",
      "pitch": 55,
      "velocity": 100,
      "start_step": 4,
      "dur_steps": 4
    },
    {
      "type": "note",
      "track": "pulse2",
      "pitch": 53,
      "velocity": 100,
      "start_step": 8,
      "dur_steps": 4
    },
    {
      "type": "note",
      "track": "pulse2",
      "pitch": 48,
      "velocity": 100,
      "start_step": 12,
      "dur_steps": 4
    },
    {
      "type": "note",
      "track": "triangle",
      "pitch": 36,
      "velocity": 100,
      "start_step": 0,
      "dur_steps": 4
    },
    {
      "type": "note",
      "track": "triangle",
      "pitch": 31,
      "velocity": 100,
      "start_step": 4,
      "dur_steps": 4
    },
    {
      "type": "note",
      "track": "triangle",
      "pitch": 29,
      "velocity": 100,
      "start_step": 8,
      "dur_steps": 4
    },
    {
      "type": "note",
      "track": "triangle",
      "pitch": 24,
      "velocity": 100,
      "start_step": 12,
      "dur_steps": 4
    },
    {
      "type": "note",
      "track": "noise",
      "pitch": 0,
      "velocity": 127,
      "start_step": 0,
      "dur_steps": 1
    },
    {
      "type": "note",
      "track": "noise",
      "pitch": 0,
      "velocity": 64,
      "start_step": 2,
      "dur_steps": 1
    },
    {
      "type": "note",
      "track": "noise",
      "pitch": 0,
      "velocity": 127,
      "start_step": 4,
      "dur_steps": 1
    },
    {
      "type": "note",
      "track": "noise",
      "pitch": 0,
      "velocity": 64,
      "start_step": 6,
      "dur_steps": 1
    },
    {
      "type": "note",
      "track": "noise",
      "pitch": 0,
      "velocity": 127,
      "start_step": 8,
      "dur_steps": 1
    },
    {
      "type": "note",
      "track": "noise",
      "pitch": 0,
      "velocity": 64,
      "start_step": 10,
      "dur_steps": 1
    },
    {
      "type": "note",
      "track": "noise",
      "pitch": 0,
      "velocity": 127,
      "start_step": 12,
      "dur_steps": 1
    },
    {
      "type": "note",
      "track": "noise",
      "pitch": 0,
      "velocity": 127,
      "start_step": 14,
      "dur_steps": 1
    },
    {
      "type": "note",
      "track": "pulse1",
      "pitch": 72,
      "velocity": 100,
      "start_step": 16,
      "dur_steps": 4
    },
    {
      "type": "note",
      "track": "pulse1",
      "pitch": 67,
      "velocity": 100,
      "start_step": 20,
      "dur_steps": 4
    },
    {
      "type": "note",
      "track": "pulse1",
      "pitch": 77,
      "velocity": 127,
      "start_step": 24,
      "dur_steps": 2
    },
    {
      "type": "note",
      "track": "pulse1",
      "pitch": 76,
      "velocity": 127,
      "start_step": 26,
      "dur_steps": 2
    },
    {
      "type": "note",
      "track": "pulse1",
      "pitch": 74,
      "velocity": 100,
      "start_step": 28,
      "dur_steps": 4
    },
    {
      "type": "note",
      "track": "pulse2",
      "pitch": 60,
      "velocity": 64,
      "start_step": 24,
      "dur_steps": 2
    },
    {
      "type": "note",
      "track": "pulse2",
      "pitch": 59,
      "velocity": 64,
      "start_step": 26,
      "dur_steps": 2
    },
    {
      "type": "note",
      "track": "pulse2",
      "pitch": 57,
      "velocity": 100,
      "start_step": 28,
      "dur_steps": 4
    },
    {
      "type": "note",
      "track": "triangle",
      "pitch": 36,
      "velocity": 100,
      "start_step": 16,
      "dur_steps": 8
    },
    {
      "type": "note",
      "track": "triangle",
      "pitch": 31,
      "velocity": 100,
      "start_step": 24,
      "dur_steps": 8
    },
    {
      "type": "note",
      "track": "noise",
      "pitch": 35,
      "velocity": 100,
      "start_step": 16,
      "dur_steps": 1
    },
    {
      "type": "note",
      "track": "noise",
      "pitch": 35,
      "velocity": 64,
      "start_step": 18,
      "dur_steps": 1
    },
    {
      "type": "note",
      "track": "noise",
      "pitch": 35,
      "velocity": 100,
      "start_step": 24,
      "dur_steps": 1
    },
    {
      "type": "note",
      "track": "noise",
      "pitch": 35,
      "velocity": 64,
      "start_step": 26,
      "dur_steps": 1
    },
    {
      "type": "note",
      "track": "noise",
      "pitch": 35,
      "velocity": 127,
      "start_step": 28,
      "dur_steps": 1
    },
    {
      "type": "note",
      "track": "noise",
      "pitch": 35,
      "velocity": 64,
      "start_step": 30,
      "dur_steps": 1
    },
    {
      "type": "note",
      "track": "pulse1",
      "pitch": 72,
      "velocity": 100,
      "start_step": 32,
      "dur_steps": 6
    },
    {
      "type": "note",
      "track": "pulse1",
      "pitch": 67,
      "velocity": 100,
      "start_step": 38,
      "dur_steps": 2
    },
    {
      "type": "note",
      "track": "pulse1",
      "pitch": 77,
      "velocity": 127,
      "start_step": 40,
      "dur_steps": 3
    },
    {
      "type": "note",
      "track": "pulse1",
      "pitch": 76,
      "velocity": 100,
      "start_step": 43,
      "dur_steps": 1
    },
    {
      "type": "note",
      "track": "pulse1",
      "pitch": 74,
      "velocity": 100,
      "start_step": 44,
      "dur_steps": 4
    },
    {
      "type": "note",
      "track": "pulse2",
      "pitch": 60,
      "velocity": 64,
      "start_step": 41,
      "dur_steps": 1
    },
    {
      "type": "note",
      "track": "pulse2",
      "pitch": 59,
      "velocity": 64,
      "start_step": 42,
      "dur_steps": 1
    },
    {
      "type": "note",
      "track": "pulse2",
      "pitch": 57,
      "velocity": 64,
      "start_step": 44,
      "dur_steps": 4
    },
    {
      "type": "note",
      "track": "triangle",
      "pitch": 36,
      "velocity": 100,
      "start_step": 32,
      "dur_steps": 4
    },
    {
      "type": "note",
      "track": "triangle",
      "pitch": 36,
      "velocity": 100,
      "start_step": 36,
      "dur_steps": 4
    },
    {
      "type": "note",
      "track": "triangle",
      "pitch": 40,
      "velocity": 100,
      "start_step": 40,
      "dur_steps": 4
    },
    {
      "type": "note",
      "track": "triangle",
      "pitch": 40,
      "velocity": 100,
      "start_step": 44,
      "dur_steps": 4
    },
    {
      "type": "note",
      "track": "noise",
      "pitch": 0,
      "velocity": 127,
      "start_step": 32,
      "dur_steps": 1
    },
    {
      "type": "note",
      "track": "noise",
      "pitch": 0,
      "velocity": 64,
      "start_step": 35,
      "dur_steps": 1
    },
    {
      "type": "note",
      "track": "noise",
      "pitch": 0,
      "velocity": 127,
      "start_step": 38,
      "dur_steps": 1
    },
    {
      "type": "note",
      "track": "noise",
      "pitch": 0,
      "velocity": 64,
      "start_step": 41,
      "dur_steps": 1
    },
    {
      "type": "note",
      "track": "noise",
      "pitch": 0,
      "velocity": 127,
      "start_step": 44,
      "dur_steps": 1
    },
    {
      "type": "note",
      "track": "pulse1",
      "pitch": 72,
      "velocity": 100,
      "start_step": 48,
      "dur_steps": 4
    },
    {
      "type": "note",
      "track": "pulse1",
      "pitch": 76,
      "velocity": 127,
      "start_step": 52,
      "dur_steps": 4
    },
    {
      "type": "note",
      "track": "pulse1",
      "pitch": 79,
      "velocity": 100,
      "start_step": 56,
      "dur_steps": 4
    },
    {
      "type": "note",
      "track": "pulse1",
      "pitch": 77,
      "velocity": 127,
      "start_step": 60,
      "dur_steps": 4
    },
    {
      "type": "note",
      "track": "pulse2",
      "pitch": 67,
      "velocity": 64,
      "start_step": 49,
      "dur_steps": 3
    },
    {
      "type": "note",
      "track": "pulse2",
      "pitch": 71,
      "velocity": 64,
      "start_step": 53,
      "dur_steps": 3
    },
    {
      "type": "note",
      "track": "pulse2",
      "pitch": 74,
      "velocity": 64,
      "start_step": 57,
      "dur_steps": 3
    },
    {
      "type": "note",
      "track": "pulse2",
      "pitch": 72,
      "velocity": 64,
      "start_step": 61,
      "dur_steps": 3
    },
    {
      "type": "note",
      "track": "triangle",
      "pitch": 48,
      "velocity": 100,
      "start_step": 48,
      "dur_steps": 4
    },
    {
      "type": "note",
      "track": "triangle",
      "pitch": 52,
      "velocity": 100,
      "start_step": 52,
      "dur_steps": 4
    },
    {
      "type": "note",
      "track": "triangle",
      "pitch": 55,
      "velocity": 100,
      "start_step": 56,
      "dur_steps": 4
    },
    {
      "type": "note",
      "track": "triangle",
      "pitch": 53,
      "velocity": 100,
      "start_step": 60,
      "dur_steps": 4
    },
    {
      "type": "note",
      "track": "noise",
      "pitch": 0,
      "velocity": 127,
      "start_step": 48,
      "dur_steps": 1
    },
    {
      "type": "note",
      "track": "noise",
      "pitch": 0,
      "velocity": 64,
      "start_step": 50,
      "dur_steps": 1
    },
    {
      "type": "note",
      "track": "noise",
      "pitch": 0,
      "velocity": 127,
      "start_step": 52,
      "dur_steps": 1
    },
    {
      "type": "note",
      "track": "noise",
      "pitch": 0,
      "velocity": 64,
      "start_step": 54,
      "dur_steps": 1
    },
    {
      "type": "note",
      "track": "noise",
      "pitch": 0,
      "velocity": 127,
      "start_step": 56,
      "dur_steps": 1
    },
    {
      "type": "note",
      "track": "noise",
      "pitch": 0,
      "velocity": 64,
      "start_step": 58,
      "dur_steps": 1
    },
    {
      "type": "note",
      "track": "noise",
      "pitch": 0,
      "velocity": 127,
      "start_step": 60,
      "dur_steps": 1
    },
    {
      "type": "note",
      "track": "noise",
      "pitch": 0,
      "velocity": 64,
      "start_step": 62,
      "dur_steps": 1
    },
    {
      "type": "note",
      "track": "pulse1",
      "pitch": 72,
      "velocity": 100,
      "start_step": 64,
      "dur_steps": 8
    },
    {
      "type": "note",
      "track": "pulse1",
      "pitch": 76,
      "velocity": 100,
      "start_step": 72,
      "dur_steps": 4
    },
    {
      "type": "note",
      "track": "pulse1",
      "pitch": 79,
      "velocity": 127,
      "start_step": 76,
      "dur_steps": 4
    },
    {
      "type": "note",
      "track": "pulse2",
      "pitch": 67,
      "velocity": 64,
      "start_step": 64,
      "dur_steps": 8
    },
    {
      "type": "note",
      "track": "pulse2",
      "pitch": 71,
      "velocity": 64,
      "start_step": 72,
      "dur_steps": 4
    },
    {
      "type": "note",
      "track": "pulse2",
      "pitch": 74,
      "velocity": 100,
      "start_step": 76,
      "dur_steps": 4
    },
    {
      "type": "note",
      "track": "triangle",
      "pitch": 48,
      "velocity": 100,
      "start_step": 64,
      "dur_steps": 16
    },
    {
      "type": "note",
      "track": "noise",
      "pitch": 35,
      "velocity": 100,
      "start_step": 64,
      "dur_steps": 4
    },
    {
      "type": "note",
      "track": "noise",
      "pitch": 35,
      "velocity": 64,
      "start_step": 68,
      "dur_steps": 4
    },
    {
      "type": "note",
      "track": "noise",
      "pitch": 35,
      "velocity": 100,
      "start_step": 72,
      "dur_steps": 4
    },
    {
      "type": "note",
      "track": "noise",
      "pitch": 35,
      "velocity": 64,
      "start_step": 76,
      "dur_steps": 4
    },
    {
      "type": "note",
      "track": "pulse1",
      "pitch": 76,
      "velocity": 100,
      "start_step": 80,
      "dur_steps": 8
    },
    {
      "type": "note",
      "track": "pulse1",
      "pitch": 72,
      "velocity": 127,
      "start_step": 88,
      "dur_steps": 8
    },
    {
      "type": "note",
      "track": "pulse2",
      "pitch": 67,
      "velocity": 64,
      "start_step": 80,
      "dur_steps": 2
    },
    {
      "type": "note",
      "track": "pulse2",
      "pitch": 71,
      "velocity": 64,
      "start_step": 82,
      "dur_steps": 2
    },
    {
      "type": "note",
      "track": "pulse2",
      "pitch": 74,
      "velocity": 64,
      "start_step": 84,
      "dur_steps": 2
    },
    {
      "type": "note",
      "track": "pulse2",
      "pitch": 71,
      "velocity": 64,
      "start_step": 86,
      "dur_steps": 2
    },
    {
      "type": "note",
      "track": "pulse2",
      "pitch": 67,
      "velocity": 64,
      "start_step": 88,
      "dur_steps": 2
    },
    {
      "type": "note",
      "track": "pulse2",
      "pitch": 64,
      "velocity": 64,
      "start_step": 90,
      "dur_steps": 2
    },
    {
      "type": "note",
      "track": "pulse2",
      "pitch": 60,
      "velocity": 64,
      "start_step": 92,
      "dur_steps": 2
    },
    {
      "type": "note",
      "track": "pulse2",
      "pitch": 64,
      "velocity": 64,
      "start_step": 94,
      "dur_steps": 2
    },
    {
      "type": "note",
      "track": "triangle",
      "pitch": 48,
      "velocity": 100,
      "start_step": 80,
      "dur_steps": 16
    },
    {
      "type": "note",
      "track": "noise",
      "pitch": 35,
      "velocity": 127,
      "start_step": 80,
      "dur_steps": 2
    },
    {
      "type": "note",
      "track": "noise",
      "pitch": 35,
      "velocity": 64,
      "start_step": 84,
      "dur_steps": 2
    },
    {
      "type": "note",
      "track": "noise",
      "pitch": 35,
      "velocity": 127,
      "start_step": 88,
      "dur_steps": 2
    },
    {
      "type": "note",
      "track": "noise",
      "pitch": 35,
      "velocity": 64,
      "start_step": 92,
      "dur_steps": 2
    },
    {
      "type": "note",
      "track": "pulse1",
      "pitch": 72,
      "velocity": 100,
      "start_step": 96,
      "dur_steps": 6
    },
    {
      "type": "note",
      "track": "pulse1",
      "pitch": 76,
      "velocity": 127,
      "start_step": 104,
      "dur_steps": 4
    },
    {
      "type": "note",
      "track": "pulse1",
      "pitch": 74,
      "velocity": 100,
      "start_step": 108,
      "dur_steps": 4
    },
    {
      "type": "note",
      "track": "pulse2",
      "pitch": 67,
      "velocity": 64,
      "start_step": 96,
      "dur_steps": 8
    },
    {
      "type": "note",
      "track": "pulse2",
      "pitch": 71,
      "velocity": 64,
      "start_step": 104,
      "dur_steps": 8
    },
    {
      "type": "note",
      "track": "triangle",
      "pitch": 48,
      "velocity": 100,
      "start_step": 96,
      "dur_steps": 8
    },
    {
      "type": "note",
      "track": "triangle",
      "pitch": 43,
      "velocity": 100,
      "start_step": 104,
      "dur_steps": 8
    },
    {
      "type": "note",
      "track": "noise",
      "pitch": 35,
      "velocity": 127,
      "start_step": 96,
      "dur_steps": 1
    },
    {
      "type": "note",
      "track": "noise",
      "pitch": 35,
      "velocity": 64,
      "start_step": 100,
      "dur_steps": 1
    },
    {
      "type": "note",
      "track": "noise",
      "pitch": 35,
      "velocity": 127,
      "start_step": 104,
      "dur_steps": 1
    },
    {
      "type": "note",
      "track": "noise",
      "pitch": 35,
      "velocity": 64,
      "start_step": 108,
      "dur_steps": 1
    },
    {
      "type": "note",
      "track": "pulse1",
      "pitch": 72,
      "velocity": 100,
      "start_step": 112,
      "dur_steps": 8
    },
    {
      "type": "note",
      "track": "pulse1",
      "pitch": 74,
      "velocity": 127,
      "start_step": 120,
      "dur_steps": 8
    },
    {
      "type": "note",
      "track": "pulse2",
      "pitch": 60,
      "velocity": 64,
      "start_step": 112,
      "dur_steps": 4
    },
    {
      "type": "note",
      "track": "pulse2",
      "pitch": 64,
      "velocity": 100,
      "start_step": 116,
      "dur_steps": 4
    },
    {
      "type": "note",
      "track": "pulse2",
      "pitch": 67,
      "velocity": 64,
      "start_step": 120,
      "dur_steps": 4
    },
    {
      "type": "note",
      "track": "pulse2",
      "pitch": 71,
      "velocity": 100,
      "start_step": 124,
      "dur_steps": 4
    },
    {
      "type": "note",
      "track": "triangle",
      "pitch": 48,
      "velocity": 100,
      "start_step": 112,
      "dur_steps": 8
    },
    {
      "type": "note",
      "track": "triangle",
      "pitch": 43,
      "velocity": 100,
      "start_step": 120,
      "dur_steps": 8
    },
    {
      "type": "note",
      "track": "noise",
      "pitch": 35,
      "velocity": 127,
      "start_step": 112,
      "dur_steps": 2
    },
    {
      "type": "note",
      "track": "noise",
      "pitch": 35,
      "velocity": 64,
      "start_step": 116,
      "dur_steps": 2
    },
    {
      "type": "note",
      "track": "noise",
      "pitch": 35,
      "velocity": 127,
      "start_step": 120,
      "dur_steps": 2
    },
    {
      "type": "note",
      "track": "noise",
      "pitch": 35,
      "velocity": 64,
      "start_step": 124,
      "dur_steps": 2
    }
  ]
}